<?xml version="1.0" encoding="iso-8859-1"?>
<!-- Uploaded to: SVG Repo, www.svgrepo.com, Generator: SVG Repo Mixer Tools -->
<!DOCTYPE svg PUBLIC "-//W3C//DTD SVG 1.1//EN" "http://www.w3.org/Graphics/SVG/1.1/DTD/svg11.dtd">
<svg fill="#333333"  stroke="#ffffff" stroke-width="5" version="1.1" id="Capa_1" xmlns="http://www.w3.org/2000/svg" xmlns:xlink="http://www.w3.org/1999/xlink"
	 width="800px" height="800px" viewBox="0 0 472.064 472.064"
	 xml:space="preserve">
<g>
	<g>
		<path d="M110.426,302.306c0,9.354,10.368,11.71,18.322,11.71h1.923c7.951,0,11.155-2.356,11.155-11.71v-41.873l30.877-11.706
			c-0.465,3.114-0.786,6.271-0.786,9.506c0,27.086,16.815,50.201,40.561,59.586v60.456l-70.653,60.104v33.687l94.205-21.396
			l94.206,21.396v-33.687l-70.654-60.104v-60.456c23.736-9.393,40.562-32.5,40.562-59.586c0-3.234-0.316-6.392-0.789-9.506
			l30.881,11.706v41.873c0,9.354,3.202,11.71,11.153,11.71h1.923c7.959,0,18.322-2.356,18.322-11.71v-29.967l109.908,41.677v-30.42
			l-109.908-76.273v-15.593c0-9.343-10.363-50.423-18.322-50.423h-1.923c-6.769,0-10.095,29.777-10.94,44.378l-70.867-49.181V54.952
			c0-13.01-10.54-54.952-23.552-54.952c-13.01,0-23.552,41.941-23.552,54.952v81.551L141.6,185.69
			c-0.832-14.607-4.154-44.384-10.928-44.384h-1.923c-7.955,0-18.322,41.08-18.322,50.423v15.593L0.521,283.596v30.42
			l109.906-41.677V302.306z" />
	</g>
</g>
</svg>